# xmcd
#
# Track frame offsets:
#	150
#	20262
#	39802
#	53350
#	68157
#	87425
#	98737
#	117342
#	133685
#	141982
#	161710
#	188320
#	199912
#	213217
#	229834
#	246922
#
# Disc length: 3477
#
# Revision: 1
# Processed by: cddbd v1.5.1PL0 Copyright (c) Steve Scherf et al.
# Submitted via: CD-DA_X-Tractor v0.24
# Normalized: r0:TRMNUM
#
DISCID=d20d9310
DTITLE=Albert Järvinen - Aspects of Albert Järvinen
DYEAR=1900
DGENRE=
TTITLE0=Let it roll
TTITLE1=High
TTITLE2=Lets go rockin` tonight
TTITLE3=Mirror tower
TTITLE4=Roadrunner
TTITLE5=Teenage nervous breakdown
TTITLE6=Song for the sons
TTITLE7=Singing the memory
TTITLE8=Say mama
TTITLE9=Mr.Clarke
TTITLE10=Whorehouse queen
TTITLE11=Going to lousiana
TTITLE12=Train kept a rollin`
TTITLE13=Fire
TTITLE14=Countdown
TTITLE15=China town
EXTD=
EXTT0=
EXTT1=
EXTT2=
EXTT3=
EXTT4=
EXTT5=
EXTT6=
EXTT7=
EXTT8=
EXTT9=
EXTT10=
EXTT11=
EXTT12=
EXTT13=
EXTT14=
EXTT15=
PLAYORDER=
